<?xml version="1.0"?>
<svg width="213" height="62" xmlns="http://www.w3.org/2000/svg" xmlns:svg="http://www.w3.org/2000/svg" preserveAspectRatio="xMidYMid meet" version="1.0">
	<g class="layer">
		<title>Layer 1</title>
		<!--<path d="m51.2,13c6.9,3.8 10.4,15.2 7.8,25.9c-1.4,6 -4.2,9.8 -8.4,11.7c-1.8,0.8 -2.4,1.3 -1.4,1.4c1,0 3.3,-1.4 5.3,-3.1c10.4,-9.1 7.4,-34.2 -4.5,-37.3c-1.7,-0.5 -1.3,0 1.2,1.4z" id="svg_2" transform="matrix(1 0 0 1 0 0)"/>-->
		<!--将上面的Path中的d数据更改为使用a命令描述-->
		<path d="m51.2,13
			  c6.9,3.8 10.4" fill="red"></path>
		<!--<path d="m60,11.3c0,0.4 1.5,1.3 3.4,2.1c6.6,2.7 10.2,14.8 7.6,25.5c-1.4,6 -4.1,9.8 -8.4,11.8c-2.9,1.3 -2.7,1.4 4,0.9c12.4,-1 22.5,-5.4 32.2,-14l6.3,-5.6l44.59,0.29c43.81,0.05 39.2,0.34 39.05,-0.61c-0.15,-0.95 4.34,-0.82 -39.03,-0.68l-45.81,-0.1l-3,-3.4c-4.4,-4.9 -13.2,-10.5 -21.1,-13.1c-6.7,-2.3 -19.8,-4.3 -19.8,-3.1zm15.5,2.9c9.4,2 23.7,10.7 26.6,16c0.9,1.7 0.6,2.5 -1.8,5c-6.7,7.2 -19.7,13.6 -31.3,15.4l-4.4,0.6l3.1,-3.5c7.2,-8.2 6.8,-24.9 -0.9,-33.3c-1.9,-2.1 -1.9,-2.1 0.9,-1.7c1.5,0.2 5.1,0.9 7.8,1.5z" id="svg_3"/>-->
		
		<!--将上面的2条Path指令生成的5条线拆分成5条Path指令-->
		
		
		
		<!--<line fill="none" id="svg_10" x1="112.75" x2="139.25" y1="16.75" y2="100"/>
		<rect fill="#000000" height="1.24" id="svg_13" width="8.14" x="39.53" y="17.38"/>
		<rect fill="#000000" height="1.24" id="svg_14" width="8.14" x="39.53" y="44.49"/>-->

	</g>

</svg>